<?xml version="1.0" encoding="UTF-8"?><svg id="Layer_1" xmlns="http://www.w3.org/2000/svg" xmlns:xlink="http://www.w3.org/1999/xlink" viewBox="0 0 120 66"><defs><style>.cls-1{fill:url(#linear-gradient);opacity:.9;}.cls-2{fill:#ee4c2c;}.cls-3{stroke-linecap:square;stroke-width:1px;}.cls-3,.cls-4{fill:none;stroke:#000;}.cls-5{font-family:Courier, Courier;font-size:18px;}.cls-4{stroke-miterlimit:10;}</style><linearGradient id="linear-gradient" x1="-3.6" y1="31.19" x2="110.66" y2="31.19" gradientTransform="matrix(1, 0, 0, 1, 0, 0)" gradientUnits="userSpaceOnUse"><stop offset=".1" stop-color="#fff" stop-opacity=".2"/><stop offset=".25" stop-color="#fff"/></linearGradient></defs><path id="path2218" class="cls-3" d="M2.75,51.14H112.25"/><path id="path4162" class="cls-3" d="M2.75,31.14H112.25"/><path id="path4164" class="cls-3" d="M2.75,21.14H112.25"/><path id="path4166" class="cls-3" d="M2.75,11.14H112.25"/><path id="path4168" class="cls-3" d="M2.75,41.14H112.25"/><line class="cls-4" x1="2.75" y1="51.04" x2="2.75" y2="11.04"/><g><rect class="cls-1" x="3" y="12.69" width="114.25" height="37"/><text class="cls-5" transform="translate(44.83 29.15)"><tspan x="0" y="0">torch</tspan><tspan x="-16.2" y="14">composer</tspan></text></g><g><g><path class="cls-2" d="M21.95,34.2l-1.71,1.71c2.8,2.8,2.8,7.31,0,10.07-2.8,2.8-7.31,2.8-10.07,0-2.8-2.8-2.8-7.31,0-10.07l4.45-4.45c.3-.3,.89-.9,1.57-1.72,7.08-8.5,8.68-21.69,4.16-26.79-.96-1.08-1.73-1.28-2.2-1.32-2.94-.23-5.43,5.25-5.96,6.39-.68,1.48-1.49,3.82-1.54,6.74-.03,1.56,.17,2.87,.37,3.81l.75-.17c.02-1.06,.14-2.61,.65-4.4,.15-.51,2.06-6.89,4.99-6.92,.83,0,1.47,.5,1.74,.72,3.19,2.62,1.86,10.71-1.34,16.19-.95,1.62-1.93,2.8-2.55,3.48-2.23,2.23-4.47,4.47-6.7,6.7-3.73,3.73-3.73,9.76,0,13.49s9.76,3.73,13.42,0c3.71-3.73,3.71-9.71-.02-13.47Z"/><circle class="cls-2" cx="18.59" cy="32.55" r="1.24"/></g><path id="path4608" class="cls-2" d="M7.87,59.77c.04-1.91,1.59-3.43,3.47-3.4s3.37,1.61,3.34,3.53-1.59,3.43-3.47,3.4-3.37-1.61-3.34-3.53Z"/><rect class="cls-2" x="15.43" y="17.98" width=".77" height="39.33" transform="translate(-8.06 4.52) rotate(-13)"/><path class="cls-2" d="M19.86,56.9c.14,1-.02,1.75-.15,2.19-.83,2.76-4,4.14-6,4.14-.74,0-1.45-.19-1.45-.19-.79-.21-1.51-.58-2.13-1.07l-1.05,.61c.82,.74,1.82,1.3,2.92,1.58,.12,.03,.89,.22,1.71,.22,3.04-.04,6.54-2.87,6.93-6.17,.07-.6,.03-1.11-.03-1.48l-.75,.17Z"/></g></svg>